<svg xmlns="http://www.w3.org/2000/svg" viewBox="0 0 512 512">
  <rect width="512" height="512" fill="#0f172a" rx="128"/>
  <path fill="#3b82f6" d="M256 128c-44.18 0-80 35.82-80 80 0 14.19 3.73 27.53 10.22 39.22l-47.53 47.53A79.79 79.79 0 00128 288c-44.18 0-80 35.82-80 80s35.82 80 80 80 80-35.82 80-80c0-14.19-3.73-27.53-10.22-39.22l47.53-47.53v.03c12.22 6.8 26.2 10.72 40.69 10.72 44.18 0 80-35.82 80-80 0-14.19-3.73-27.53-10.22-39.22l47.53-47.53c12.22 6.8 26.2 10.72 40.69 10.72 44.18 0 80-35.82 80-80s-35.82-80-80-80-80 35.82-80 80c0 14.19 3.73 27.53 10.22 39.22l-47.53 47.53c-12.22-6.8-26.2-10.72-40.69-10.72z" />
</svg>
